#!OML:ASF E:\Steps\Project 1\Capture day 1\Session 2\Subject.ASF
:FULLY-SPECIFIED
:DEGREES
847
root 8.79407 25.1175 -19.4093 -154.396 -0.216758 178.54
lowerback -28.2853 -1.38313 -5.44322
upperback 0.315729 -0.415815 0.126868
thorax 15.4688 -0.760987 2.91796
lowerneck -1.0808 -1.46742 -3.07129
upperneck 16.7728 -3.99022 6.24394
head 5.38851 -2.21806 2.2212
rclavicle -1.46604e-015 3.97569e-015
rhumerus -43.2658 -14.2305 -76.3886
rradius 39.9172
rwrist -5.89361
rhand -6.13961 -51.8689
rfingers 7.12502
rthumb 19.6981 279.109
lclavicle -1.46604e-015 3.97569e-015
lhumerus -33.8544 4.17647 79.1568
lradius 25.3439
lwrist -6.98104
lhand -19.7616 -9.0753
lfingers 7.12502
lthumb 6.56993 20.8028
rfemur -25.5288 9.50188 15.9389
rtibia 9.41901
rfoot -376.657 -7.41934
rtoes -35.5227
lfemur -24.847 -9.3304 -21.9672
ltibia 11.3081
lfoot 352.188 2.64885
ltoes -33.9924
848
root 8.79924 25.1135 -19.4368 -154.307 -0.387794 178.555
lowerback -28.4319 -1.37121 -5.37482
upperback 0.277442 -0.425969 0.147818
thorax 15.4947 -0.764066 2.89705
lowerneck -1.28948 -1.54948 -3.05359
upperneck 16.4054 -3.98289 6.11393
head 5.3079 -2.19426 2.17718
rclavicle -5.91384e-015 4.17448e-015
rhumerus -43.1745 -14.4822 -76.2627
rradius 39.9793
rwrist -5.87803
rhand -6.13338 -51.7255
rfingers 7.12502
rthumb 19.7041 279.253
lclavicle -5.91384e-015 4.17448e-015
lhumerus -33.6843 4.06917 79.2779
lradius 24.7724
lwrist -7.0584
lhand -19.4784 -8.9468
lfingers 7.12502
lthumb 6.84334 20.9226
rfemur -25.3479 9.24704 16.0578
rtibia 9.09443
rfoot -376.597 -7.26772
rtoes -35.1271
lfemur -24.7664 -9.3335 -21.9133
ltibia 11.1683
lfoot 352.214 2.55434
ltoes -34.4494
849
root 8.80645 25.1066 -19.4592 -154.427 -0.44281 178.208
lowerback -28.3388 -1.45355 -5.72252
upperback 0.166544 -0.428668 0.0546755
thorax 15.3165 -0.787125 2.98261
lowerneck -1.03081 -1.563 -3.02137
upperneck 16.0146 -3.95283 6.11068
head 5.14101 -2.17657 2.1769
rclavicle 2.48481e-016 3.77691e-015
rhumerus -43.4871 -14.8948 -76.0564
rradius 40.3103
rwrist -5.63451
rhand -6.11207 -51.8394
rfingers 7.12502
rthumb 19.7246 279.141
lclavicle 2.48481e-016 3.77691e-015
lhumerus -33.7911 3.97387 79.3026
lradius 24.1082
lwrist -7.22673
lhand -19.7049 -9.38493
lfingers 7.12502
lthumb 6.62474 20.4915
rfemur -24.9339 8.95447 15.7663
rtibia 8.7682
rfoot -376.54 -7.19566
rtoes -35.3345
lfemur -24.4495 -9.46532 -22.3054
ltibia 10.9725
lfoot 352.269 2.46002
ltoes -34.087
850
root 8.81575 25.107 -19.4833 -154.383 -0.656187 178.28
lowerback -28.4644 -1.48514 -5.68639
upperback 0.0993349 -0.493097 0.0933639
thorax 15.3034 -0.817035 2.97712
lowerneck -0.90658 -1.60847 -3.005
upperneck 15.5235 -3.93435 6.10945
head 4.96761 -2.15505 2.17824
rclavicle -2.23633e-015 4.77083e-015
rhumerus -43.0236 -14.6984 -76.1682
rradius 39.6428
rwrist -6.12361
rhand -6.4627 -51.4949
rfingers 7.12502
rthumb 19.3875 279.452
lclavicle -2.23633e-015 4.77083e-015
lhumerus -33.8946 4.0991 79.2677
lradius 23.6754
lwrist -7.61872
lhand -19.9177 -9.76048
lfingers 7.12502
lthumb 6.41931 20.1222
rfemur -24.745 8.84526 15.9497
rtibia 8.56027
rfoot -376.55 -7.24972
rtoes -35.6561
lfemur -24.3837 -9.49833 -22.1111
ltibia 10.8555
lfoot 352.298 2.35064
ltoes -33.7947
851
root 8.82444 25.1064 -19.5156 -154.241 -1.00778 178.563
lowerback -28.7023 -1.46546 -5.41579
upperback -0.054257 -0.587719 0.20495
thorax 15.2456 -0.847888 2.90882
lowerneck -0.745283 -1.64853 -3.06169
upperneck 15.1086 -3.92312 6.11783
head 4.8135 -2.14476 2.19457
rclavicle 7.37988e-015 6.85807e-015
rhumerus -42.9279 -14.8471 -75.9804
rradius 39.315
rwrist -5.86646
rhand -5.81633 -51.9058
rfingers 7.12502
rthumb 20.0089 279.104
lclavicle 7.37988e-015 6.85807e-015
lhumerus -34.2301 4.30878 79.218
lradius 23.5283
lwrist -8.21952
lhand -19.8085 -9.6554
lfingers 7.12502
lthumb 6.52471 20.2241
rfemur -24.5292 8.88369 16.3751
rtibia 8.15328
rfoot -376.485 -7.41041
rtoes -35.4573
lfemur -24.3971 -9.44384 -21.6803
ltibia 10.7681
lfoot 352.293 2.16616
ltoes -33.4696
852
root 8.83105 25.1043 -19.5447 -154.252 -1.20794 178.585
lowerback -28.6312 -1.48038 -5.39481
upperback -0.286215 -0.656607 0.218674
thorax 14.945 -0.87735 2.88298
lowerneck -0.510519 -1.64123 -3.03413
upperneck 14.818 -3.87384 6.06414
head 4.68119 -2.12288 2.17967
rclavicle 4.19933e-015 -7.85199e-015
rhumerus -43.2724 -15.0763 -75.7703
rradius 39.2046
rwrist -5.92942
rhand -5.95168 -51.5725
rfingers 7.12502
rthumb 19.8788 279.424
lclavicle 4.19933e-015 -7.85199e-015
lhumerus -34.4982 4.65215 79.058
lradius 23.1262
lwrist -9.00487
lhand -19.4072 -9.43121
lfingers 7.12502
lthumb 6.91207 20.4359
rfemur -24.1242 8.95552 16.4623
rtibia 7.6652
rfoot -376.363 -7.59563
rtoes -35.0417
lfemur -24.2053 -9.42677 -21.6375
ltibia 10.6297
lfoot 352.315 2.0623
ltoes -33.6128
853
root 8.83452 25.1014 -19.5715 -154.315 -1.24013 178.455
lowerback -28.6866 -1.46749 -5.49943
upperback -0.369772 -0.608882 0.152288
thorax 14.8667 -0.863727 2.88379
lowerneck -0.338425 -1.6492 -2.95444
upperneck 14.4414 -3.82764 6.0096
head 4.53296 -2.09385 2.15534
rclavicle -3.75206e-015 -6.36111e-015
rhumerus -43.3452 -15.3044 -75.6764
rradius 39.0674
rwrist -6.12761
rhand -5.80176 -51.5305
rfingers 7.12502
rthumb 20.0229 279.481
lclavicle -3.75206e-015 -6.36111e-015
lhumerus -34.474 4.98498 78.9168
lradius 22.5541
lwrist -9.70499
lhand -19 -9.05396
lfingers 7.12502
lthumb 7.30514 20.7999
rfemur -23.7672 8.81587 16.389
rtibia 7.36987
rfoot -376.347 -7.52393
rtoes -34.8474
lfemur -23.9041 -9.44345 -21.8295
ltibia 10.4083
lfoot 352.338 2.04757
ltoes -33.7935
854
root 8.84055 25.0995 -19.5921 -154.373 -1.1997 178.253
lowerback -28.6522 -1.47651 -5.7585
upperback -0.434362 -0.542269 0.107299
thorax 14.7672 -0.851049 3.00118
lowerneck -0.317713 -1.69007 -2.94722
upperneck 14.0493 -3.80423 5.94328
head 4.40794 -2.07205 2.13679
rclavicle -2.48481e-015 -1.59028e-015
rhumerus -43.1432 -15.3268 -75.6587
rradius 38.7539
rwrist -6.47997
rhand -5.92697 -51.6943
rfingers 7.12502
rthumb 19.9026 279.305
lclavicle -2.48481e-015 -1.59028e-015
lhumerus -34.534 5.41346 78.7993
lradius 22.1232
lwrist -10.4121
lhand -18.9797 -8.80382
lfingers 7.12502
lthumb 7.32473 21.0494
rfemur -23.5453 8.7815 16.1788
rtibia 7.21455
rfoot -376.385 -7.48622
rtoes -34.5093
lfemur -23.6812 -9.52218 -22.0573
ltibia 10.2738
lfoot 352.294 2.08621
ltoes -33.3291
855
root 8.84792 25.0981 -19.6103 -154.394 -1.23067 178.222
lowerback -28.6378 -1.48368 -5.83317
upperback -0.472555 -0.536231 0.122378
thorax 14.7151 -0.853907 3.06033
lowerneck -0.529391 -1.76458 -3.03519
upperneck 13.7941 -3.82921 5.89762
head 4.36797 -2.07157 2.13496
rclavicle 9.0447e-015 3.8763e-015
rhumerus -42.9173 -15.533 -75.5579
rradius 38.4793
rwrist -6.3614
rhand -6.33612 -51.4683
rfingers 7.12502
rthumb 19.5092 279.49
lclavicle 9.0447e-015 3.8763e-015
lhumerus -34.4603 6.11081 78.574
lradius 21.5131
lwrist -11.3717
lhand -19.1453 -9.14521
lfingers 7.12502
lthumb 7.1649 20.7135
rfemur -23.3575 8.87874 16.1502
rtibia 6.98914
rfoot -376.363 -7.5372
rtoes -34.2388
lfemur -23.5703 -9.62224 -22.0268
ltibia 10.2341
lfoot 352.23 2.1561
ltoes -33.091
856
root 8.85311 25.0936 -19.6365 -154.414 -1.32508 178.171
lowerback -28.7228 -1.49323 -5.86971
upperback -0.395839 -0.520303 0.127185
thorax 14.8435 -0.850929 3.09157
lowerneck -1.03426 -1.95719 -3.079
upperneck 13.6152 -3.98908 5.73906
head 4.40455 -2.12941 2.08102
rclavicle -3.05631e-015 -5.66536e-015
rhumerus -42.5516 -16.037 -75.3678
rradius 38.1613
rwrist -5.96418
rhand -6.39104 -51.5698
rfingers 7.12502
rthumb 19.4564 279.384
lclavicle -3.05631e-015 -5.66536e-015
lhumerus -34.1374 6.70218 78.4471
lradius 20.8918
lwrist -12.1429
lhand -19.2035 -9.61644
lfingers 7.12502
lthumb 7.10872 20.2442
rfemur -23.0432 8.74405 16.1835
rtibia 6.67074
rfoot -376.309 -7.50156
rtoes -34.3638
lfemur -23.3616 -9.65333 -22.0745
ltibia 10.0997
lfoot 352.186 2.07706
ltoes -33.2552
857
root 8.85773 25.0903 -19.6712 -154.283 -1.54216 178.281
lowerback -29.1156 -1.54769 -5.71718
upperback -0.556235 -0.653853 0.0989485
thorax 14.8497 -0.909836 2.9157
lowerneck -0.40312 -1.95521 -2.68092
upperneck 12.7558 -3.89217 5.21683
head 4.47421 -2.119 2.06891
rclavicle 2.36057e-015 8.34896e-015
rhumerus -42.6401 -16.1172 -75.4098
rradius 37.7943
rwrist -6.0229
rhand -6.31167 -52.0731
rfingers 7.12502
rthumb 19.5327 278.888
lclavicle 2.36057e-015 8.34896e-015
lhumerus -34.6264 6.81054 78.1704
lradius 20.7998
lwrist -12.3284
lhand -19.1298 -9.63782
lfingers 7.12502
lthumb 7.17989 20.2204
rfemur -22.8569 8.4622 16.4542
rtibia 6.41287
rfoot -376.322 -7.36304
rtoes -34.3708
lfemur -23.2718 -9.62081 -21.9173
ltibia 9.92126
lfoot 352.145 1.89664
ltoes -33.9365
